#!OML:ASF F:\VICON\USERDATA\INSTALL\Justin_Nancy\Justin_Nancy.ASF
:FULLY-SPECIFIED
:DEGREES
108
root 0.889685 17.8362 -15.5962 7.01274 -2.46465 0.821446
lowerback 5.1411 -0.228207 -2.12037
upperback -0.241307 -0.353152 2.58032
thorax -3.10514 -0.12138 3.88872
lowerneck -16.847 -4.17387 -10.4472
upperneck 22.0858 -4.34967 5.62403
head 10.1986 -2.24073 3.13367
rclavicle -6.75868e-015 1.11319e-014
rhumerus -32.5189 -7.79338 -80.0635
rradius 37.9472
rwrist 1.98818
rhand -9.76317 13.1943
rfingers 7.12502
rthumb 16.2117 -16.1478
lclavicle -6.75868e-015 1.11319e-014
lhumerus -31.1356 8.90612 85.0998
lradius 31.7192
lwrist -6.75687
lhand -10.6932 26.6966
lfingers 7.12502
lthumb 15.316 56.1095
rfemur -13.1077 4.89605 19.2013
rtibia 22.3116
rfoot -11.1154 -9.96668
rtoes 6.21899
lfemur -11.6531 -3.80746 -19.6194
ltibia 19.5006
lfoot -11.7376 6.0121
ltoes -0.977569
109
root 0.888402 17.8363 -15.5965 7.00367 -2.45502 0.777751
lowerback 5.11776 -0.240045 -2.06834
upperback -0.173225 -0.366511 2.57167
thorax -3.0208 -0.131348 3.85023
lowerneck -16.9292 -4.14347 -10.4359
upperneck 22.0811 -4.313 5.67285
head 10.2095 -2.21595 3.15392
rclavicle 3.97569e-016 2.3059e-014
rhumerus -32.5096 -7.66632 -80.1802
rradius 38.1715
rwrist 1.89689
rhand -9.88189 13.0505
rfingers 7.12502
rthumb 16.0974 -16.3009
lclavicle 3.97569e-016 2.3059e-014
lhumerus -31.0567 8.9428 85.0612
lradius 31.812
lwrist -6.87893
lhand -10.2842 27.8879
lfingers 7.12502
lthumb 15.71 57.2702
rfemur -13.0689 4.82978 19.2574
rtibia 22.2572
rfoot -11.1208 -9.92405
rtoes 6.22474
lfemur -11.7002 -3.71572 -19.5805
ltibia 19.5699
lfoot -11.76 5.97043
ltoes -1.12475
110
root 0.887805 17.8347 -15.5963 7.03782 -2.45786 0.799869
lowerback 5.08407 -0.234518 -2.09841
upperback -0.167951 -0.360833 2.56683
thorax -2.99674 -0.128573 3.86135
lowerneck -16.9794 -4.14125 -10.4224
upperneck 22.1798 -4.29834 5.62259
head 10.252 -2.21448 3.13666
rclavicle -1.2921e-015 -1.35174e-014
rhumerus -32.5658 -7.51995 -80.2451
rradius 38.4002
rwrist 1.82413
rhand -10.0308 12.9388
rfingers 7.12502
rthumb 15.954 -16.4241
lclavicle -1.2921e-015 -1.35174e-014
lhumerus -31.0969 8.64599 85.2077
lradius 31.8124
lwrist -5.98901
lhand -11.479 26.6078
lfingers 7.12502
lthumb 14.559 56.0768
rfemur -13.102 4.80819 19.2265
rtibia 22.2301
rfoot -11.1516 -9.91431
rtoes 5.95318
lfemur -11.7428 -3.66265 -19.6001
ltibia 19.6065
lfoot -11.7703 5.91291
ltoes -1.21164
111
root 0.887077 17.8337 -15.5984 7.01896 -2.42939 0.775235
lowerback 5.16303 -0.240052 -2.0866
upperback -0.190824 -0.367624 2.57973
thorax -3.06422 -0.13056 3.86979
lowerneck -16.8623 -4.12112 -10.4045
upperneck 22.2015 -4.28024 5.58826
head 10.2348 -2.21071 3.12529
rclavicle -1.54058e-014 -3.73715e-014
rhumerus -32.653 -7.2616 -80.3158
rradius 38.6136
rwrist 1.66787
rhand -10.1012 12.9549
rfingers 7.12502
rthumb 15.8862 -16.4135
lclavicle -1.54058e-014 -3.73715e-014
lhumerus -31.2713 8.37653 85.3472
lradius 31.9241
lwrist -5.09701
lhand -12.9299 24.7055
lfingers 7.12502
lthumb 13.1608 54.2701
rfemur -13.0939 4.86018 19.2571
rtibia 22.2345
rfoot -11.1509 -9.94633
rtoes 6.02797
lfemur -11.7162 -3.76333 -19.5544
ltibia 19.5897
lfoot -11.7605 5.9855
ltoes -0.987146
112
root 0.886693 17.8332 -15.5992 6.9657 -2.47478 0.806792
lowerback 5.28318 -0.23321 -2.15551
upperback -0.204281 -0.363446 2.59154
thorax -3.14563 -0.125663 3.92249
lowerneck -16.8434 -4.09759 -10.4339
upperneck 22.2598 -4.24052 5.57874
head 10.2492 -2.19721 3.13348
rclavicle -1.19271e-015 -7.95139e-015
rhumerus -32.7039 -6.97739 -80.3569
rradius 38.7023
rwrist 1.52449
rhand -10.1895 13.0695
rfingers 7.12502
rthumb 15.8012 -16.3056
lclavicle -1.19271e-015 -7.95139e-015
lhumerus -31.3497 8.51313 85.2953
lradius 32.1731
lwrist -5.78571
lhand -12.0707 25.9801
lfingers 7.12502
lthumb 13.9889 55.4895
rfemur -13.0383 4.85056 19.2227
rtibia 22.2411
rfoot -11.1715 -9.8921
rtoes 6.12295
lfemur -11.6696 -3.90637 -19.5907
ltibia 19.5635
lfoot -11.7106 6.17524
ltoes -1.01123
113
root 0.887951 17.8362 -15.5993 6.97654 -2.49629 0.92123
lowerback 5.37927 -0.224445 -2.22672
upperback -0.238588 -0.358864 2.5322
thorax -3.2355 -0.120577 3.90218
lowerneck -16.9361 -4.12929 -10.3781
upperneck 22.409 -4.27997 5.51895
head 10.3217 -2.21831 3.09825
rclavicle -7.05686e-015 -1.03368e-014
rhumerus -32.7729 -6.87132 -80.4158
rradius 38.8102
rwrist 1.50182
rhand -10.0355 13.2764
rfingers 7.12502
rthumb 15.9494 -16.0869
lclavicle -7.05686e-015 -1.03368e-014
lhumerus -31.3989 8.45223 85.251
lradius 32.3749
lwrist -6.16917
lhand -11.2601 27.5705
lfingers 7.12502
lthumb 14.7699 57.0243
rfemur -13.0341 4.79378 19.0803
rtibia 22.2376
rfoot -11.2458 -9.82268
rtoes 6.29173
lfemur -11.6814 -3.95396 -19.7354
ltibia 19.5493
lfoot -11.6184 6.25424
ltoes -0.941051
114
root 0.88736 17.838 -15.6023 7.05093 -2.46075 0.93992
lowerback 5.36132 -0.194487 -2.16764
upperback -0.193178 -0.318274 2.43982
thorax -3.18246 -0.103648 3.76844
lowerneck -17.0941 -4.20564 -10.2123
upperneck 22.4769 -4.41043 5.48558
head 10.3827 -2.26626 3.03912
rclavicle 4.96962e-016 1.35174e-014
rhumerus -32.662 -6.95042 -80.567
rradius 38.9483
rwrist 1.45786
rhand -9.86839 13.0114
rfingers 7.12502
rthumb 16.1104 -16.339
lclavicle 4.96962e-016 1.35174e-014
lhumerus -31.2452 8.02672 85.336
lradius 32.435
lwrist -5.3992
lhand -11.8023 27.1945
lfingers 7.12502
lthumb 14.2476 56.6858
rfemur -13.1283 4.76227 19.053
rtibia 22.2571
rfoot -11.2715 -9.77975
rtoes 6.32493
lfemur -11.7582 -3.88066 -19.7533
ltibia 19.5379
lfoot -11.6474 6.16219
ltoes -0.587858
115
root 0.885974 17.8376 -15.6069 7.11553 -2.42108 0.907831
lowerback 5.35521 -0.170269 -2.10132
upperback -0.143535 -0.283051 2.41028
thorax -3.13089 -0.0889591 3.69675
lowerneck -17.2887 -4.26959 -10.1564
upperneck 22.5528 -4.48875 5.45293
head 10.4521 -2.29909 3.00565
rclavicle 3.77691e-015 -1.03368e-014
rhumerus -32.5375 -6.92897 -80.6597
rradius 39.0813
rwrist 1.40268
rhand -9.85421 12.7347
rfingers 7.12502
rthumb 16.124 -16.6146
lclavicle 3.77691e-015 -1.03368e-014
lhumerus -31.1138 7.70827 85.4576
lradius 32.5878
lwrist -4.90634
lhand -12.1671 27.0265
lfingers 7.12502
lthumb 13.8959 56.5422
rfemur -13.2449 4.76219 19.0917
rtibia 22.2898
rfoot -11.1355 -9.76406
rtoes 6.36408
lfemur -11.8597 -3.88305 -19.7035
ltibia 19.5243
lfoot -11.6348 6.12937
ltoes -0.601436
116
root 0.884683 17.8355 -15.6088 7.1609 -2.40181 0.842465
lowerback 5.38204 -0.173127 -2.07059
upperback -0.160961 -0.283725 2.45152
thorax -3.16392 -0.0886761 3.72281
lowerneck -17.3059 -4.25127 -10.1846
upperneck 22.5783 -4.44397 5.41609
head 10.4608 -2.2854 3.00376
rclavicle 8.64713e-015 -3.26007e-014
rhumerus -32.5796 -6.72033 -80.6734
rradius 39.1956
rwrist 1.4153
rhand -9.9047 12.8795
rfingers 7.12502
rthumb 16.0754 -16.4737
lclavicle 8.64713e-015 -3.26007e-014
lhumerus -31.174 7.64569 85.4997
lradius 32.8034
lwrist -5.115
lhand -11.8165 27.1431
lfingers 7.12502
lthumb 14.2338 56.6353
rfemur -13.301 4.71308 19.1708
rtibia 22.3235
rfoot -11.1365 -9.70039
rtoes 6.76046
lfemur -11.955 -3.87263 -19.6148
ltibia 19.5243
lfoot -11.5757 6.07037
ltoes -1.27947
117
root 0.884502 17.8342 -15.6096 7.16478 -2.38924 0.805626
lowerback 5.44658 -0.171875 -2.05399
upperback -0.197423 -0.280706 2.46941
thorax -3.23819 -0.0855571 3.73285
lowerneck -17.0786 -4.2323 -10.1948
upperneck 22.495 -4.43051 5.39208
head 10.3859 -2.28516 2.99977
rclavicle -9.14409e-015 -2.70347e-014
rhumerus -32.735 -6.54805 -80.7109
rradius 39.409
rwrist 1.39842
rhand -10.0224 12.7811
rfingers 7.12502
rthumb 15.9621 -16.5812
lclavicle -9.14409e-015 -2.70347e-014
lhumerus -31.2796 7.67739 85.4601
lradius 33.1378
lwrist -5.77123
lhand -10.4138 28.1753
lfingers 7.12502
lthumb 15.5851 57.5674
rfemur -13.2933 4.71995 19.2088
rtibia 22.3532
rfoot -11.2558 -9.73932
rtoes 6.90157
lfemur -11.9799 -3.88758 -19.5665
ltibia 19.536
lfoot -11.5179 6.04083
ltoes -1.59268
118
root 0.884525 17.8356 -15.6093 7.17095 -2.4056 0.899822
lowerback 5.47475 -0.198164 -2.16284
upperback -0.290615 -0.322619 2.45988
thorax -3.34673 -0.101512 3.78926
lowerneck -16.6326 -4.19014 -10.229
upperneck 22.3508 -4.39413 5.3435
head 10.2459 -2.28174 2.9956
rclavicle 1.18277e-014 -1.59028e-015
rhumerus -32.9896 -6.20551 -80.7856
rradius 39.6883
rwrist 1.25462
rhand -10.0156 12.3808
rfingers 7.12502
rthumb 15.9686 -16.9809
lclavicle 1.18277e-014 -1.59028e-015
lhumerus -31.5493 7.36195 85.638
lradius 33.0872
lwrist -3.97912
lhand -12.791 26.3264
lfingers 7.12502
lthumb 13.2947 55.8824
rfemur -13.3372 4.66122 19.0992
rtibia 22.3897
rfoot -11.321 -9.70729
rtoes 6.6326
lfemur -11.9741 -3.84012 -19.6831
ltibia 19.5366
lfoot -11.5352 6.03704
ltoes -1.34168
